<svg width="50" height="50" viewBox="0 0 50 50" fill="none" xmlns="http://www.w3.org/2000/svg">
<circle cx="25" cy="25" r="25" fill="#B0BD5C"/>
<path d="M25 25C26.3845 25 27.7378 24.5895 28.889 23.8203C30.0401 23.0511 30.9373 21.9579 31.4672 20.6788C31.997 19.3997 32.1356 17.9922 31.8655 16.6344C31.5954 15.2765 30.9287 14.0292 29.9497 13.0503C28.9708 12.0713 27.7235 11.4046 26.3656 11.1345C25.0078 10.8644 23.6003 11.003 22.3212 11.5328C21.0421 12.0627 19.9489 12.9599 19.1797 14.111C18.4105 15.2622 18 16.6155 18 18C18 19.8565 18.7375 21.637 20.0503 22.9497C21.363 24.2625 23.1435 25 25 25ZM25 13C25.9889 13 26.9556 13.2932 27.7779 13.8427C28.6001 14.3921 29.241 15.173 29.6194 16.0866C29.9978 17.0002 30.0969 18.0055 29.9039 18.9755C29.711 19.9454 29.2348 20.8363 28.5355 21.5355C27.8363 22.2348 26.9454 22.711 25.9755 22.9039C25.0055 23.0969 24.0002 22.9978 23.0866 22.6194C22.173 22.241 21.3921 21.6001 20.8427 20.7779C20.2932 19.9556 20 18.9889 20 18C20 16.6739 20.5268 15.4022 21.4645 14.4645C22.4021 13.5268 23.6739 13 25 13Z" fill="white"/>
<path d="M26 27H24C21.0826 27 18.2847 28.1589 16.2218 30.2218C14.1589 32.2847 13 35.0826 13 38C13 38.2652 13.1054 38.5196 13.2929 38.7071C13.4804 38.8946 13.7348 39 14 39H36C36.2652 39 36.5196 38.8946 36.7071 38.7071C36.8946 38.5196 37 38.2652 37 38C37 35.0826 35.8411 32.2847 33.7782 30.2218C31.7153 28.1589 28.9174 27 26 27ZM15.06 37C15.3059 34.8006 16.3535 32.769 18.0027 31.2932C19.6518 29.8175 21.7869 29.0011 24 29H26C28.2131 29.0011 30.3482 29.8175 31.9973 31.2932C33.6465 32.769 34.6941 34.8006 34.94 37H15.06Z" fill="white"/>
</svg>
