<svg width="17" height="17" viewBox="0 0 17 17" fill="none" xmlns="http://www.w3.org/2000/svg">
<path d="M8.49999 15.7C12.4764 15.7 15.7 12.4765 15.7 8.50005C15.7 4.5236 12.4764 1.30005 8.49999 1.30005C4.52354 1.30005 1.29999 4.5236 1.29999 8.50005C1.29999 12.4765 4.52354 15.7 8.49999 15.7Z" stroke="#AAAAAA" stroke-miterlimit="10" stroke-linecap="round"/>
<path d="M8.13371 5.87232C8.06891 5.87232 8.02661 5.82912 8.02661 5.76462V4.97922C8.02661 4.91472 8.06921 4.87152 8.13371 4.87152H8.86541C8.92991 4.87152 8.97311 4.91472 8.97311 4.97922V5.76462C8.97311 5.82912 8.92961 5.87232 8.86541 5.87232H8.13371ZM8.15561 12.1879C8.09111 12.1879 8.04821 12.145 8.04821 12.0805V7.14192C8.04821 7.07742 8.09141 7.03422 8.15561 7.03422H8.84411C8.90891 7.03422 8.95181 7.07742 8.95181 7.14192V12.0805C8.95181 12.1453 8.90861 12.1879 8.84411 12.1879H8.15561Z" fill="#AAAAAA"/>
</svg>
