<svg width="20" height="20" viewBox="0 0 20 20" fill="none" xmlns="http://www.w3.org/2000/svg">
<path d="M11.8094 20C11.6695 19.9999 11.5324 19.9605 11.4138 19.8862C11.2952 19.812 11.1998 19.7059 11.1386 19.58L7.63073 12.3687L0.419339 8.86124C0.289432 8.79791 0.180702 8.69824 0.106351 8.57431C0.0320007 8.45039 -0.00477262 8.30754 0.000496357 8.16312C0.00576533 8.01869 0.0528499 7.87891 0.136033 7.76073C0.219216 7.64255 0.33492 7.55106 0.469097 7.49738L18.9745 0.0541171C19.1103 -0.000614233 19.2592 -0.014202 19.4026 0.0150453C19.5461 0.0442926 19.6778 0.115083 19.7813 0.218606C19.8848 0.322128 19.9556 0.453811 19.9848 0.597263C20.0141 0.740714 20.0005 0.8896 19.9458 1.02539L12.502 19.5323C12.448 19.6663 12.3563 19.7819 12.2379 19.8648C12.1196 19.9478 11.9797 19.9945 11.8353 19.9995L11.8094 20ZM2.58529 8.25718L8.51542 11.1431C8.66573 11.2162 8.78715 11.3376 8.86024 11.4879L11.7462 17.4181L17.9057 2.0902L2.58529 8.25718Z" fill="white"/>
<path d="M8.18899 12.557C8.04136 12.557 7.89706 12.5132 7.77434 12.4311C7.65161 12.3491 7.55597 12.2325 7.49952 12.0961C7.44306 11.9597 7.42832 11.8096 7.45716 11.6648C7.48601 11.52 7.55713 11.3871 7.66155 11.2827L18.7252 0.219079C18.7945 0.149783 18.8768 0.0948212 18.9674 0.057331C19.058 0.0198407 19.155 0.000556754 19.253 0.000579855C19.3511 0.000602956 19.4481 0.0199328 19.5387 0.0574657C19.6292 0.0949986 19.7115 0.15 19.7808 0.219328C19.8501 0.288657 19.9051 0.370956 19.9425 0.461525C19.98 0.552095 19.9993 0.649162 19.9993 0.747185C19.9993 0.845207 19.9799 0.942265 19.9424 1.03282C19.9049 1.12337 19.8499 1.20564 19.7805 1.27494L8.71692 12.3406C8.57655 12.4798 8.38668 12.5576 8.18899 12.557Z" fill="white"/>
</svg>
