<svg width="15" height="17" viewBox="0 0 15 17" fill="none" xmlns="http://www.w3.org/2000/svg">
<path d="M9.80769 17H4.57692C3.70987 17 2.87833 16.6555 2.26523 16.0424C1.65213 15.4293 1.30769 14.5978 1.30769 13.7307V5.88459C1.30769 5.71118 1.37658 5.54487 1.4992 5.42225C1.62182 5.29963 1.78813 5.23074 1.96154 5.23074C2.13495 5.23074 2.30126 5.29963 2.42388 5.42225C2.5465 5.54487 2.61538 5.71118 2.61538 5.88459V13.7307C2.61538 14.251 2.82205 14.7499 3.18991 15.1178C3.55777 15.4856 4.05669 15.6923 4.57692 15.6923H9.80769C10.3279 15.6923 10.8268 15.4856 11.1947 15.1178C11.5626 14.7499 11.7692 14.251 11.7692 13.7307V5.88459C11.7692 5.71118 11.8381 5.54487 11.9607 5.42225C12.0834 5.29963 12.2497 5.23074 12.4231 5.23074C12.5965 5.23074 12.7628 5.29963 12.8854 5.42225C13.008 5.54487 13.0769 5.71118 13.0769 5.88459V13.7307C13.0769 14.5978 12.7325 15.4293 12.1194 16.0424C11.5063 16.6555 10.6747 17 9.80769 17ZM13.7308 3.92305H0.653846C0.480435 3.92305 0.314127 3.85416 0.191507 3.73154C0.0688873 3.60892 0 3.44261 0 3.2692C0 3.09579 0.0688873 2.92948 0.191507 2.80686C0.314127 2.68424 0.480435 2.61536 0.653846 2.61536H13.7308C13.9042 2.61536 14.0705 2.68424 14.1931 2.80686C14.3157 2.92948 14.3846 3.09579 14.3846 3.2692C14.3846 3.44261 14.3157 3.60892 14.1931 3.73154C14.0705 3.85416 13.9042 3.92305 13.7308 3.92305Z" fill="#AAAAAA"/>
<path d="M9.80768 3.92308H4.57691C4.4035 3.92308 4.23719 3.85419 4.11457 3.73157C3.99195 3.60895 3.92307 3.44264 3.92307 3.26923V1.96154C3.92307 1.44131 4.12973 0.942381 4.49759 0.574521C4.86545 0.206662 5.36437 0 5.8846 0H8.49999C9.02022 0 9.51915 0.206662 9.88701 0.574521C10.2549 0.942381 10.4615 1.44131 10.4615 1.96154V3.26923C10.4615 3.44264 10.3926 3.60895 10.27 3.73157C10.1474 3.85419 9.98109 3.92308 9.80768 3.92308ZM5.23076 2.61538H9.15383V1.96154C9.15383 1.78813 9.08495 1.62182 8.96233 1.4992C8.83971 1.37658 8.6734 1.30769 8.49999 1.30769H5.8846C5.71119 1.30769 5.54488 1.37658 5.42226 1.4992C5.29964 1.62182 5.23076 1.78813 5.23076 1.96154V2.61538ZM5.8846 13.0769C5.71119 13.0769 5.54488 13.008 5.42226 12.8854C5.29964 12.7628 5.23076 12.5965 5.23076 12.4231V7.84615C5.23076 7.67274 5.29964 7.50643 5.42226 7.38381C5.54488 7.26119 5.71119 7.19231 5.8846 7.19231C6.05801 7.19231 6.22432 7.26119 6.34694 7.38381C6.46956 7.50643 6.53845 7.67274 6.53845 7.84615V12.4231C6.53845 12.5965 6.46956 12.7628 6.34694 12.8854C6.22432 13.008 6.05801 13.0769 5.8846 13.0769ZM8.49999 13.0769C8.32658 13.0769 8.16027 13.008 8.03765 12.8854C7.91503 12.7628 7.84614 12.5965 7.84614 12.4231V7.84615C7.84614 7.67274 7.91503 7.50643 8.03765 7.38381C8.16027 7.26119 8.32658 7.19231 8.49999 7.19231C8.6734 7.19231 8.83971 7.26119 8.96233 7.38381C9.08495 7.50643 9.15383 7.67274 9.15383 7.84615V12.4231C9.15383 12.5965 9.08495 12.7628 8.96233 12.8854C8.83971 13.008 8.6734 13.0769 8.49999 13.0769Z" fill="#AAAAAA"/>
</svg>
